<?xml version="1.0" encoding="UTF-8"?><svg id="Calque_2" xmlns="http://www.w3.org/2000/svg" viewBox="0 0 233.95 233.95"><defs><style>.cls-1{fill:#022631;}.cls-2{fill:#13c5b2;}</style></defs><g id="Calque_1-2"><g><circle class="cls-2" cx="116.97" cy="116.97" r="116.97"/><path class="cls-1" d="M119.51,172.09h-33.41V62.9c14.72-.7,25.03-1.04,30.95-1.04,11.34,0,20.2,2.42,26.59,7.27,6.39,4.85,9.58,11.77,9.58,20.77s-4.58,15.49-13.72,20.51c13.57,4.72,20.36,14.47,20.36,29.24,0,9.95-3.75,17.84-11.26,23.68-7.51,5.84-17.2,8.76-29.09,8.76Zm-14.02-93.68v26.18c2.98,.2,6.12,.3,9.4,.3,12.63,0,18.94-4.75,18.94-14.25,0-8.4-5.74-12.6-17.23-12.6-3.03,0-6.74,.12-11.11,.37Zm0,41.32v36.1c3.93,.35,7.11,.52,9.55,.52,8.65,0,14.93-1.47,18.83-4.4,3.9-2.93,5.85-7.81,5.85-14.62,0-6.21-1.82-10.74-5.44-13.57-3.63-2.83-9.97-4.25-19.02-4.25-1.89,0-5.15,.08-9.77,.22Z"/></g></g></svg>