<?xml version="1.0" encoding="UTF-8"?><svg id="Calque_2" xmlns="http://www.w3.org/2000/svg" viewBox="0 0 233.95 233.95"><defs><style>.cls-1{fill:#022631;}.cls-2{fill:#13c5b2;}</style></defs><g id="Calque_1-2"><g><circle class="cls-2" cx="116.97" cy="116.97" r="116.97"/><path class="cls-1" d="M106.72,171.98h-24.24V62.79c15.46-.55,25.18-.82,29.16-.82,15.91,0,28.53,4.66,37.85,13.98,9.32,9.32,13.98,21.69,13.98,37.11,0,39.28-18.92,58.92-56.76,58.92Zm-4.85-92.26v74.58c3.13,.3,6.51,.45,10.14,.45,9.79,0,17.46-3.55,23.01-10.67,5.54-7.11,8.32-17.05,8.32-29.83,0-23.37-10.86-35.05-32.59-35.05-2.09,0-5.05,.17-8.88,.52Z"/></g></g></svg>