<?xml version="1.0" encoding="UTF-8"?><svg id="Calque_2" xmlns="http://www.w3.org/2000/svg" viewBox="0 0 233.95 233.95"><defs><style>.cls-1{fill:#022631;}.cls-2{fill:#13c5b2;}</style></defs><g id="Calque_1-2"><g><circle class="cls-2" cx="116.97" cy="116.97" r="116.97"/><path class="cls-1" d="M150.57,68.16l-7.98,16.04c-4.33-4.33-11.29-6.49-20.88-6.49-9.1,0-16.56,3.82-22.38,11.45-5.82,7.63-8.73,17.29-8.73,28.98s2.7,20.96,8.09,27.82c5.39,6.86,12.59,10.29,21.59,10.29,10.29,0,18.35-3.68,24.17-11.04l9.02,15.66c-7.91,8.4-19.49,12.6-34.76,12.6s-27.12-5.02-35.58-15.07c-8.45-10.04-12.68-23.74-12.68-41.1,0-16.16,4.69-29.67,14.06-40.54,9.37-10.86,21.37-16.3,35.99-16.3,12.53,0,22.55,2.56,30.06,7.68Z"/></g></g></svg>